<svg id="Layer_1" data-name="Layer 1" xmlns="http://www.w3.org/2000/svg" viewBox="0 0 512 512"><title>ship-glyph</title><path d="M456.62,467.16c-6.59,4.69-10.22,7.27-19.33,7.27s-12.74-2.58-19.33-7.27c-8.44-6-20-14.22-41.11-14.22s-32.66,8.22-41.1,14.22c-6.59,4.69-10.22,7.27-19.33,7.27s-12.74-2.58-19.33-7.27c-8.44-6-20-14.22-41.1-14.22s-32.66,8.22-41.1,14.22c-6.59,4.69-10.22,7.27-19.33,7.27s-12.74-2.58-19.33-7.27c-8.44-6-20-14.22-41.1-14.22s-32.66,8.22-41.1,14.22c-6.59,4.69-10.22,7.27-19.33,7.27S62,471.85,55.38,467.16c-8.44-6-20-14.22-41.1-14.22v37.57c9.11,0,12.74,2.58,19.33,7.27,8.44,6,20,14.22,41.1,14.22s32.66-8.22,41.1-14.22c6.59-4.69,10.22-7.27,19.33-7.27s12.74,2.58,19.33,7.27c8.44,6,20,14.22,41.1,14.22s32.66-8.22,41.1-14.22c6.59-4.69,10.22-7.27,19.33-7.27s12.74,2.58,19.33,7.27c8.44,6,20,14.22,41.1,14.22s32.66-8.22,41.1-14.22c6.59-4.69,10.22-7.27,19.33-7.27s12.74,2.58,19.33,7.27c8.44,6,20,14.22,41.11,14.22s32.67-8.22,41.11-14.22c6.59-4.69,10.22-7.27,19.33-7.27V452.94C476.61,452.94,465.05,461.16,456.62,467.16Z" fill="#5b5b5f"/><polygon points="256 146.84 268.11 150.96 425.08 204.39 425.08 98.18 86.92 98.18 86.92 204.39 243.9 150.96 256 146.84" fill="#5b5b5f"/><polygon points="364.34 28.81 274.16 28.81 274.16 0 236.59 0 236.59 28.81 147.66 28.81 147.66 81.98 364.34 81.98 364.34 28.81" fill="#5b5b5f"/><path d="M258.55,173.31v-1.76l-2.59.88-2.59-.88v1.76L43.21,244.84l79.51,197.33a102.57,102.57,0,0,1,33.75-5.43c30.66,0,49.54,11.82,60.43,19.44,8.08-5.66,20.61-13.6,39.05-17.33,18.44,3.73,31,11.67,39.06,17.33,10.89-7.62,29.77-19.44,60.43-19.44a102.75,102.75,0,0,1,33,5.18l80.38-197.06Z" fill="#5b5b5f"/></svg>